<svg xmlns="http://www.w3.org/2000/svg" width="25" height="25" viewBox="0 0 25 25">
  <path id="Icon_awesome-history" data-name="Icon awesome-history" d="M25.563,13.039A12.5,12.5,0,0,1,5.218,22.795,1.209,1.209,0,0,1,5.125,21l.568-.568a1.212,1.212,0,0,1,1.607-.1A9.275,9.275,0,1,0,6.708,6.305L9.266,8.863A.806.806,0,0,1,8.7,10.24H1.369a.806.806,0,0,1-.806-.806V2.106a.806.806,0,0,1,1.377-.57L4.428,4.024a12.5,12.5,0,0,1,21.135,9.014ZM16.444,17.01l.5-.637a1.21,1.21,0,0,0-.212-1.7l-2.051-1.6V7.821a1.21,1.21,0,0,0-1.21-1.21h-.806a1.21,1.21,0,0,0-1.21,1.21v6.837l3.3,2.564a1.21,1.21,0,0,0,1.7-.212Z" transform="translate(-0.563 -0.563)" fill="currentColor"/>
</svg>
