<svg xmlns="http://www.w3.org/2000/svg"  width="32.149" height="25" viewBox="0 0 32.149 25">
  <path id="Icon_awesome-home" data-name="Icon awesome-home" d="M15.647,8.739,5.358,17.214v9.147a.893.893,0,0,0,.893.893l6.254-.016a.893.893,0,0,0,.888-.893V21a.893.893,0,0,1,.893-.893h3.572a.893.893,0,0,1,.893.893V26.34a.893.893,0,0,0,.893.9l6.252.017a.893.893,0,0,0,.893-.893V17.208L16.5,8.739A.68.68,0,0,0,15.647,8.739ZM31.9,14.5l-4.666-3.846V2.923a.67.67,0,0,0-.67-.67H23.44a.67.67,0,0,0-.67.67V6.976l-5-4.111a2.679,2.679,0,0,0-3.4,0L.242,14.5a.67.67,0,0,0-.089.943l1.423,1.73a.67.67,0,0,0,.944.091L15.647,6.451a.68.68,0,0,1,.854,0L29.629,17.264a.67.67,0,0,0,.943-.089L32,15.444A.67.67,0,0,0,31.9,14.5Z" transform="translate(0.001 -2.254)" fill="#3d3d3d"/>
</svg>
